<svg width="74" height="31" viewBox="0 0 74 31" fill="none" xmlns="http://www.w3.org/2000/svg">
<mask id="mask0_16_116" style="mask-type:alpha" maskUnits="userSpaceOnUse" x="0" y="0" width="74" height="31">
<path d="M8.13413 15.2703L16.3857 10.6203V16.7629L9.98413 20.3509L13.5373 22.3602V28.5028L5.31508 23.8527V17.7102L8.13413 19.3176V15.2703ZM8.13413 7.14719V13.2898L16.3857 8.63979V2.49719L8.13413 7.14719ZM35.0325 10.6203V12.5722H28.1024V15.8731H34.6508V17.825H28.1024V23.0777H25.7238V10.6203H35.0325ZM38.8794 10.6203V23.0777H36.6183V10.6203H38.8794ZM45.6921 23.3648C42.6968 23.3648 40.7294 21.2407 40.7294 18.4852C40.7294 15.7009 42.6968 13.6055 45.6921 13.6055C48.6873 13.6055 50.6548 15.7296 50.6548 18.4852C50.6548 21.2407 48.6873 23.3648 45.6921 23.3648ZM45.6921 21.5852C47.5714 21.5852 48.3936 19.9777 48.3936 18.4852C48.3936 16.9926 47.6008 15.3852 45.6921 15.3852C43.8127 15.3852 42.9905 16.9926 42.9905 18.4852C42.9905 19.9777 43.8127 21.5852 45.6921 21.5852ZM56.5571 13.5768C58.1135 13.5768 59.3468 13.9787 60.0809 14.8111C60.5508 15.3565 60.7857 16.0453 60.7857 16.9639V23.1065H58.5246V22.0444C57.996 22.762 57.1151 23.3648 55.3825 23.3648C53.4738 23.3648 51.8881 22.3889 51.8881 20.3509C51.8881 18.5713 53.2682 17.624 55.4706 17.4231L58.5246 17.1648V16.9352C58.5246 15.8731 58.0254 15.2416 56.5571 15.2416C55.3825 15.2416 54.7952 15.6148 54.6778 16.3037H52.3579C52.6222 14.6389 54.0611 13.5768 56.5571 13.5768ZM58.5246 19.0879V18.7435L55.5587 19.0018C54.7071 19.0592 54.1492 19.5472 54.1492 20.3222C54.1492 21.2407 54.7952 21.6426 55.7643 21.6426C57.2619 21.6713 58.5246 20.7815 58.5246 19.0879ZM61.6079 15.6148V13.8352H63.869V11.7111H66.1302V13.8352H68.6849V15.6148H66.1302V20.6092C66.1302 21.1546 66.3063 21.3842 66.8643 21.3842H68.6849V23.1065H66.3063C64.5444 23.1065 63.869 22.3315 63.869 20.6092V15.6148H61.6079Z" fill="white"/>
</mask>
<g mask="url(#mask0_16_116)">
<rect x="-20" y="-11" width="118" height="52" fill="white"/>
</g>
</svg>
